<?xml version="1.0" encoding="utf-8"?>
<!-- Generator: Adobe Illustrator 24.0.1, SVG Export Plug-In . SVG Version: 6.00 Build 0)  -->
<svg version="1.1" id="Layer_1" xmlns="http://www.w3.org/2000/svg" xmlns:xlink="http://www.w3.org/1999/xlink" x="0px" y="0px"
	 viewBox="0 0 200 200" enable-background="new 0 0 200 200" xml:space="preserve">
<polygon opacity="0.7" fill="#C5FFFC" points="65.5,23 117.1,53.5 117.1,114.4 65.5,144.9 13.9,114.4 13.9,53.5 "/>
<polygon opacity="0.7" fill="#B2F7F2" points="134.2,54.4 185.9,84.9 185.9,145.8 134.2,176.3 82.6,145.8 82.6,84.9 "/>
<g>
	<path fill="#FFFFFF" d="M63.3,123.9L38,40l4-3l21.4,66.6c1.2,5.1,2.3,10.2,3.1,14.2h0.1c0.7-4.1,2-9,3.4-14.3l5.5-20.7h5.6l5,20.9
		c1.2,4.9,2.3,9.8,2.9,14.1h0.1c0.9-4.5,2-9.1,3.3-14.2l5.4-20.7h5.4l-11.7,41.1h-5.6l-5.2-21.4c-1.3-5.2-2.1-9.3-2.7-13.4h-0.1
		c-0.7,4.1-1.6,8.1-3.2,13.4l-5.9,21.4H63.3z"/>
	<path fill="#FFFFFF" d="M111.4,111l-4.3,12.9h-5.5l14-41.1h6.4l30,83.2l-4,2l-22-57H111.4z M124.9,106.9l-4-11.8
		c-0.9-2.7-1.5-5.1-2.1-7.5h-0.1c-0.6,2.4-1.3,4.9-2.1,7.4l-4,11.9H124.9z"/>
</g>
<line display="none" fill="none" stroke="#FFFFFF" stroke-width="5" stroke-miterlimit="10" x1="42.5" y1="32.5" x2="55.5" y2="83.5"/>
<line display="none" fill="none" stroke="#FFFFFF" stroke-width="5" stroke-miterlimit="10" x1="133.5" y1="121.5" x2="148.5" y2="170.5"/>
<polygon opacity="0.7" fill="#C5FFFC" points="51.9,157 57.5,160.3 57.5,166.9 51.9,170.3 46.3,166.9 46.3,160.3 "/>
<polygon opacity="0.7" fill="#C5FFFC" points="147.9,28 153.5,31.3 153.5,37.9 147.9,41.3 142.3,37.9 142.3,31.3 "/>
<polygon opacity="0.7" fill="#C5FFFC" points="123,40 126.5,42.1 126.5,46.2 123,48.3 119.5,46.2 119.5,42.1 "/>
</svg>
