<?xml version="1.0" encoding="utf-8"?>
<!-- Generator: Adobe Illustrator 24.0.1, SVG Export Plug-In . SVG Version: 6.00 Build 0)  -->
<svg version="1.1" id="_x36_088ba52-b752-42bb-ac91-0a74df332082"
	 xmlns="http://www.w3.org/2000/svg" xmlns:xlink="http://www.w3.org/1999/xlink" x="0px" y="0px" viewBox="0 0 900.9 787"
	 style="enable-background:new 0 0 900.9 787;" xml:space="preserve">
<style type="text/css">
	.st0{display:none;}
	.st1{display:inline;opacity:0.2;fill:#63FFFB;enable-background:new    ;}
	.st2{display:inline;fill:#63FFFB;}
	.st3{display:inline;fill:none;stroke:#535461;stroke-width:0.5427;stroke-miterlimit:10;}
	.st4{display:inline;opacity:0.2;fill:#F5F5F5;enable-background:new    ;}
	.st5{display:inline;fill:url(#SVGID_1_);}
	.st6{display:inline;fill:#E14B5A;}
	.st7{display:inline;fill:#F7C4A7;}
	.st8{display:inline;opacity:0.1;enable-background:new    ;}
	.st9{display:inline;fill:#575988;}
	.st10{display:inline;opacity:0.1;}
	.st11{display:inline;fill:#632652;}
	.st12{display:inline;fill:#535461;}
	.st13{display:inline;fill:#FFFFFF;}
	.st14{display:inline;opacity:0.1;fill:none;stroke:#000000;stroke-width:0.2714;stroke-miterlimit:10;enable-background:new    ;}
	.st15{display:inline;fill:#6A5C99;}
	.st16{display:inline;fill:#FFD037;}
	.st17{display:inline;fill:#D6D6E3;}
	.st18{fill:#F2F2F2;}
	.st19{fill:#63FFFB;}
	.st20{fill:#3F3D56;}
	.st21{opacity:0.1;enable-background:new    ;}
	.st22{fill:none;stroke:#64FFDA;stroke-width:0.7332;stroke-miterlimit:10;stroke-dasharray:2.2125,2.7661;}
	.st23{opacity:0.2;fill:#63FFFB;enable-background:new    ;}
	.st24{fill:url(#SVGID_2_);}
	.st25{fill:#FFFFFF;}
	.st26{fill:url(#SVGID_3_);}
	.st27{fill:#E0E0E0;}
	.st28{fill:#F5F5F5;}
	.st29{opacity:0.2;fill:#69F0AE;enable-background:new    ;}
	.st30{fill:#69F0AE;}
	.st31{opacity:0.2;fill:#FF6E40;enable-background:new    ;}
	.st32{fill:url(#SVGID_4_);}
	.st33{opacity:0.3;fill:#FF6E40;enable-background:new    ;}
	.st34{fill:#FF6E40;}
	.st35{fill:url(#SVGID_5_);}
	.st36{fill:url(#SVGID_6_);}
	.st37{opacity:0.2;}
	.st38{fill:#2F2E41;}
	.st39{fill:#A0616A;}
	.st40{fill:#D0CDE1;}
	.st41{fill:#575A89;}
	.st42{fill:#C5FFFC;}
	.st43{fill:#B2F7F2;}
	.st44{fill:#A4FFFA;}
	.st45{fill:#EDF9F8;}
	.st46{fill:#F0FCFB;}
</style>
<title>coding</title>
<g class="st0">
	<rect x="232.3" y="522.7" class="st1" width="14.1" height="7.3"/>
	<rect x="233.4" y="531.7" class="st1" width="14.1" height="7.3"/>
	<rect x="221.7" y="469.5" class="st1" width="14.1" height="7.3"/>
	<rect x="231.8" y="477.9" class="st1" width="14.1" height="7.3"/>
	<rect x="204.7" y="470.1" class="st1" width="14.1" height="7.3"/>
	<rect x="250" y="486.3" class="st1" width="14.1" height="7.3"/>
	<rect x="232.9" y="486.9" class="st1" width="14.1" height="7.3"/>
	<rect x="214.7" y="478.5" class="st1" width="14.1" height="7.3"/>
	<rect x="249.2" y="542.8" class="st1" width="14.1" height="7.3"/>
	<rect x="232.1" y="543.3" class="st1" width="14.1" height="7.3"/>
	<path class="st2" d="M60.6,520.8c0,0,19.9,19.9,8.7,49.4s19.2,78.6,19.2,78.6s-0.3,0-0.9-0.2c-40.8-7.2-61.1-53.9-38.4-88.6
		C57.6,547.1,64.5,532,60.6,520.8z"/>
	<path class="st3" d="M60.6,520.8c0,0,11.2,24.4,0,44.3c-11.2,19.9-1.9,75.7,27.9,83.7"/>
	<path class="st2" d="M25.2,601.2c0,0,22.7-3.6,24.8,16.7c2.1,20.3,43.6,23.2,43.6,23.2s-0.3,0.2-0.8,0.5
		c-34.3,22.5-67.1,14.4-62.2-15.6C32.4,615,32.3,603.8,25.2,601.2z"/>
	<path class="st4" d="M25.2,601.2c0,0,22.7-3.6,24.8,16.7c2.1,20.3,43.6,23.2,43.6,23.2s-0.3,0.2-0.8,0.5
		c-34.3,22.5-67.1,14.4-62.2-15.6C32.4,615,32.3,603.8,25.2,601.2z"/>
	<path class="st3" d="M25.2,601.2c0,0,17.6,3.9,16.2,19.9c-1.4,16,26.2,35.2,52.2,20"/>
	<rect x="25.3" y="523" class="st1" width="14.1" height="7.3"/>
	<rect x="35.3" y="531.4" class="st1" width="14.1" height="7.3"/>
	<rect x="111.6" y="445.9" class="st1" width="14.1" height="7.3"/>
	<rect x="222.8" y="581" class="st1" width="14.1" height="7.3"/>
	<rect x="36.4" y="540.3" class="st1" width="14.1" height="7.3"/>
	<rect x="121.6" y="454.3" class="st1" width="14.1" height="7.3"/>
	<rect x="70.1" y="504" class="st1" width="14.1" height="7.3"/>
	<rect x="80.1" y="512.4" class="st1" width="14.1" height="7.3"/>
	<rect x="107" y="507.8" class="st1" width="14.1" height="7.3"/>
	<rect x="81.2" y="521.3" class="st1" width="14.1" height="7.3"/>
	<rect x="241.8" y="581" class="st1" width="14.1" height="7.3"/>
	
		<linearGradient id="SVGID_1_" gradientUnits="userSpaceOnUse" x1="299.798" y1="125.6349" x2="299.798" y2="272.8401" gradientTransform="matrix(1 0 0 -1 -149.42 731.5)">
		<stop  offset="0" style="stop-color:#808080;stop-opacity:0.25"/>
		<stop  offset="0.54" style="stop-color:#808080;stop-opacity:0.12"/>
		<stop  offset="1" style="stop-color:#808080;stop-opacity:0.1"/>
	</linearGradient>
	<path class="st5" d="M220.7,552c-0.9-5.1-1.5-10.2-1.7-15.4l0,0c-0.4-8.7-6.2-16.2-14.5-18.8c-1.5-0.5-3.1-0.9-4.9-1.3
		c-15.8-3.4-20.6-0.4-21.1,0c-0.5-0.8-0.9-1.7-1.2-2.6c0-0.1-0.1-0.2-0.1-0.3c3.1-3.3,5-7.6,5.4-12.2c2.6-2.7,4.2-5.9,4.2-9.4
		c0-3-1.1-5.8-3.1-8.2v-4.7c0-11.3-9.2-20.5-20.5-20.5l0,0h-1.7c-11.3,0-20.5,9.2-20.5,20.5l0,0v5.1c-1.8,2.3-2.8,5-2.8,7.8
		c0,3.4,1.5,6.6,4,9.2c0.3,4.7,2.3,9.2,5.6,12.6c0.1,0.8,0.2,1.6,0.3,2.5l-28.2,6c0,0-10.9,0.4-17.9,14.9
		C96,549.5,84.1,581,80.7,590.4l0,0c-0.6,1.7-1,2.7-1,2.7s0.1-0.1,0.3-0.3l-0.3,0.9c0,0,0.2-0.2,0.5-0.5c-0.5,3.9-0.6,10.7,4.6,11.5
		c4.3,0.7,15.4,1,23.8,1.1l0,0h0.6c5.6,0.1,9.8,0.1,9.8,0.1v-0.1h90.2v-0.9c0-0.8-0.2-1.7-0.5-2.4l0.1-0.2c0.5,0.6,0.8,1.4,0.9,2.2
		c0,0.1,0,0.2,0,0.2l0.1-0.1c0,0.2,0,0.5-0.1,0.7c0,0,11.6-29.8,11.4-47.6C221.1,555.8,221,553.9,220.7,552z M148.5,520.4
		c-0.1-0.9-0.2-1.7-0.3-2.6c0,0,0,0,0,0C148.3,518.6,148.4,519.5,148.5,520.4z M113.5,584.4v7.1l-4.5,1L113.5,584.4z"/>
	<path class="st6" d="M161.8,461.5L161.8,461.5c11.3,0,20.5,9.2,20.5,20.5v8.7l0,0h-41l0,0V482C141.3,470.7,150.5,461.5,161.8,461.5
		z"/>
	<ellipse class="st6" cx="161.9" cy="493.7" rx="23.4" ry="16.1"/>
	<path class="st7" d="M147,509.2c0,0,4.9,25.5,0,32.4c-4.9,6.9,14.9,9.6,14.9,9.6l20.5-7.5l2.9-18.4c0,0-12.5-7-9.9-21.2L147,509.2z
		"/>
	<path class="st7" d="M207.5,595.3c0,0,1.3,5.6-5.7,6.6c-4.2,0.6-8.4,0.6-12.5-0.1l-1.5-14H204L207.5,595.3z"/>
	<path class="st7" d="M83.4,588.1c0,0-3.1,12.6,3.9,13.8s32.8,1.1,32.8,1.1v-14.9l-11.7,2.5l-11-10.5L83.4,588.1z"/>
	<path class="st8" d="M148.5,517.5l-27.5,5.8c0,0-10.5,0.4-17.2,14.3c-6.7,13.9-21.4,53.6-21.4,53.6s12.5-12.6,27.1,0.9l9.8-17.6
		l-2.2,28h75.6v-13.2c0,0,15.8,8.5,14.6,13.2c0,0,13.5-34.8,10.6-50.6c-0.9-4.9-1.4-9.8-1.6-14.8l0,0c-0.4-8.4-5.9-15.6-13.9-18.1
		c-1.4-0.4-3-0.8-4.7-1.2c-16.2-3.4-20.4,0-20.4,0s-3.1,10.2-3.1,14.8c0.1,6-8.5,9.9-8.5,9.9s-12.6-3-13.2-5.4
		S147.5,520.3,148.5,517.5z"/>
	<path class="st9" d="M148.5,516.9l-27.5,5.8c0,0-10.5,0.4-17.2,14.3c-6.7,13.9-21.4,53.6-21.4,53.6s12.5-12.6,27.1,0.9l9.8-17.6
		l-2.2,28h75.6v-13.2c0,0,15.8,8.5,14.6,13.2c0,0,13.5-34.8,10.6-50.6c-0.9-4.9-1.4-9.8-1.6-14.8l0,0c-0.4-8.4-5.9-15.6-13.9-18.1
		c-1.4-0.4-3-0.8-4.7-1.2c-16.2-3.4-20.4,0-20.4,0s-3.1,10.2-3.1,14.8c0.1,6-8.5,9.9-8.5,9.9s-12.6-3-13.2-5.4
		C152,534,147.5,519.8,148.5,516.9z"/>
	<path class="st8" d="M176.5,515.7c-1.2-3.3-1.4-6.8-0.7-10.2l-28.4,5c0,0,0.4,2.1,0.9,5.4c7.5,7.8,19.8,8,27.6,0.5
		C176.1,516.1,176.3,515.9,176.5,515.7L176.5,515.7z"/>
	<path class="st7" d="M181.4,501c0,10.8-8.8,19.5-19.6,19.4c-10.5,0-19.1-8.4-19.4-18.9c0-0.2,0-0.3,0-0.5c0-7.5,4.2-14.3,10.9-17.5
		c0.6-0.3,1.2-0.5,1.8-0.8c3.2-1.2,6.7-1.5,10-0.9l0,0c8.9,1.5,15.6,8.9,16.2,17.9C181.4,500.2,181.4,500.6,181.4,501z"/>
	<g class="st10">
		<path d="M155.1,483.2L155.1,483.2c-0.6,0.2-1.2,0.5-1.8,0.8c-6.7,3.3-10.9,10.1-10.9,17.5c0,0.2,0,0.3,0,0.5
			c0.6,0,1.2-0.2,1.8-0.4c4.8-2.2,7.6-9,8.7-13.7C153.3,486.1,153.6,484.2,155.1,483.2z"/>
		<path d="M170,483.7c-1.5-0.7-3.2-1.2-4.8-1.5c1.4,0.3,2.6,1.1,3.5,2.2c0.4,0.6,0.8,1.2,1.1,1.9c-5.3-2.3-11.3-2.2-16.4,0.3
			c1.2,2.7,5,4.1,7.6,5.1c2.8,1.1,5.6,2.1,8.4,2.9l-2.5-2l5.7,0.9c0.1-1.1-0.1-2.3-0.4-3.3c1.1,0.9,2.5,1.2,3.7,1.9
			c2.2,1.4,3.1,4.1,4.3,6.4c0.3,0.6,0.7,1.2,1.3,1.6C180.8,493,176.5,486.7,170,483.7z"/>
	</g>
	<path class="st11" d="M155.1,482.8L155.1,482.8c-0.6,0.2-1.2,0.5-1.8,0.8c-6.7,3.3-10.9,10.1-10.9,17.5c0,0.2,0,0.3,0,0.5
		c0.6,0,1.2-0.2,1.8-0.4c4.8-2.2,7.6-9,8.7-13.7C153.3,485.7,153.6,483.7,155.1,482.8z"/>
	<path class="st11" d="M170,483.3c-1.5-0.7-3.2-1.2-4.8-1.5c1.4,0.3,2.6,1.1,3.5,2.2c0.4,0.6,0.8,1.2,1.1,1.9
		c-5.3-2.3-11.3-2.2-16.4,0.3c1.2,2.7,5,4.1,7.6,5.1c2.8,1.1,5.6,2.1,8.4,2.9l-2.5-2l5.7,0.9c0.1-1.1-0.1-2.3-0.4-3.3
		c1.1,0.9,2.5,1.2,3.7,1.9c2.2,1.4,3.1,4.1,4.3,6.4c0.3,0.6,0.7,1.2,1.3,1.6C180.8,492.6,176.5,486.3,170,483.3z"/>
	<path class="st8" d="M140.1,497.8c0,0,20.1-25,43.3,0l-2-5.6c0,0-10.9-15.9-18.6-12.5c-7.7,3.4-15.3,5.9-15.3,5.9L140.1,497.8z"/>
	<path class="st6" d="M140.1,497.4c0,0,20.1-25,43.3,0l-2-5.6c0,0-10.9-15.9-18.6-12.5c-7.7,3.4-15.3,5.9-15.3,5.9L140.1,497.4z"/>
	<path class="st8" d="M123.6,551.2c0,0-4.3,11.5,1.7,21.8c6,10.3-5.3,14.6-5.3,14.6"/>
	<path class="st8" d="M193.3,540.8c0,0,7.5,9.5,2.6,17.9c-4.9,8.5-4.6,28.8-4.6,28.8"/>
	<path class="st12" d="M117,596.1h82.9c3.8,0,6.9,3.1,6.9,6.9l0,0l0,0h-96.7l0,0l0,0C110.2,599.1,113.2,596.1,117,596.1z"/>
	<path class="st12" d="M125.5,548.7h66c5.8,0,10.6,4.7,10.6,10.6v38.3l0,0h-87.2l0,0v-38.3C114.9,553.5,119.6,548.7,125.5,548.7z"/>
	<circle class="st13" cx="158.4" cy="575.3" r="5.2"/>
	<path class="st14" d="M141.3,486.1c0,0,19.7-19.7,41-0.4"/>
	<rect x="185.3" y="484.9" class="st15" width="2" height="11.2"/>
	<path class="st16" d="M182.7,492.1L182.7,492.1c3.8,0,6.8,3.1,6.8,6.8v0.4c0,3.8-3.1,6.8-6.8,6.8l0,0l0,0V492.1L182.7,492.1z"/>
	<path class="st15" d="M182.9,491.5L182.9,491.5c0.9,0,1.5,0.7,1.5,1.5v12.3c0,0.9-0.7,1.5-1.5,1.5l0,0c-0.9,0-1.5-0.7-1.5-1.5V493
		C181.3,492.2,182,491.5,182.9,491.5z"/>
	<rect x="136.1" y="485.1" class="st15" width="2" height="11.2"/>
	<path class="st16" d="M140.7,506.4L140.7,506.4c-3.8,0-6.8-3.1-6.8-6.8v-0.4c0-3.8,3.1-6.8,6.8-6.8l0,0l0,0V506.4L140.7,506.4z"/>
	<path class="st15" d="M140.5,507.1L140.5,507.1c-0.9,0-1.5-0.7-1.5-1.5v-12.3c0-0.9,0.7-1.5,1.5-1.5l0,0c0.9,0,1.5,0.7,1.5,1.5
		v12.3C142,506.4,141.4,507.1,140.5,507.1z"/>
	<path class="st16" d="M185.1,472.9c-2.7-5.6-8.5-12.3-21.1-12.9v0h-0.2l0,0l-4.5,0.2v0c-12.5,0.6-18.3,7.3-21,12.9
		c-1.8,3.8-2.7,7.9-2.8,12l1.5,0l1.5,0c0.1-3.7,0.9-7.4,2.5-10.7c3.4-7,9.6-10.7,18.6-11l0,0l3.9-0.2l0,0c8.9,0.3,15.2,4.1,18.6,11
		c1.6,3.4,2.4,7,2.5,10.7l1.5,0l1.5,0C187.8,480.7,186.9,476.6,185.1,472.9z"/>
	<rect x="45.3" y="603" class="st17" width="210.2" height="56.4"/>
	<rect x="45.3" y="606.8" class="st8" width="210.2" height="7.3"/>
	<rect x="31.2" y="602.2" class="st17" width="238.4" height="7.3"/>
</g>
<g>
	<title>progressive_app</title>
	<circle class="st18" cx="739.4" cy="223.9" r="10.1"/>
	<circle class="st19" cx="741" cy="222.5" r="10.1"/>
	<rect x="749.2" y="211.2" class="st20" width="125.4" height="0.3"/>
	<path class="st20" d="M814.1,137.9h-44.5v-0.9h-20.2v0.9h-44.7c-1.7,0-3,1.3-3,3c0,0,0,0,0,0v60.9c0,1.7,1.3,3,3,3h109.4
		c1.7,0,3-1.3,3-3v-60.9C817.1,139.2,815.8,137.9,814.1,137.9L814.1,137.9z"/>
	<rect x="705.8" y="143.2" class="st19" width="107.3" height="60.5"/>
	<circle class="st19" cx="759.3" cy="140.4" r="1.1"/>
	<polygon class="st21" points="782.4,203.7 705.8,203.7 705.8,143.2 	"/>
	<circle class="st18" cx="722.6" cy="188.9" r="10.3"/>
	<rect x="784.4" y="175.8" class="st20" width="10" height="2.1"/>
	<rect x="772.3" y="159.5" class="st20" width="34.3" height="0.9"/>
	<rect x="772.3" y="162.4" class="st20" width="34.3" height="0.9"/>
	<rect x="772.3" y="165.2" class="st20" width="34.3" height="0.9"/>
	<rect x="772.3" y="168.1" class="st20" width="34.3" height="0.9"/>
	<rect x="772.3" y="170.9" class="st20" width="34.3" height="0.9"/>
	<rect x="802.3" y="144.4" class="st18" width="4.2" height="4.2"/>
	<path class="st20" d="M808.5,150.6h-5.1v-5.1h5.1V150.6z M803.6,150.3h4.6v-4.6h-4.6V150.3z"/>
	<path class="st20" d="M820.2,202.6h-10.5v-0.8c0-0.1-0.1-0.1-0.1-0.1l0,0h-3.6c-0.1,0-0.1,0.1-0.1,0.1l0,0v0.8h-2.2v-0.8
		c0-0.1-0.1-0.1-0.1-0.1l0,0h-3.6c-0.1,0-0.1,0.1-0.1,0.1l0,0v0.8h-2.2v-0.8c0-0.1-0.1-0.1-0.1-0.1l0,0h-3.6c-0.1,0-0.1,0.1-0.1,0.1
		l0,0v0.8h-2.2v-0.8c0-0.1-0.1-0.1-0.1-0.1l0,0h-3.6c-0.1,0-0.1,0.1-0.1,0.1l0,0v0.8h-2.2v-0.8c0-0.1-0.1-0.1-0.1-0.1l0,0h-3.6
		c-0.1,0-0.1,0.1-0.1,0.1v0v0.8H779v-0.8c0-0.1-0.1-0.1-0.1-0.1l0,0h-3.6c-0.1,0-0.1,0.1-0.1,0.1l0,0v0.8h-2.2v-0.8
		c0-0.1-0.1-0.1-0.1-0.1l0,0h-28.1c-0.1,0-0.1,0.1-0.1,0.1l0,0v0.8h-2.2v-0.8c0-0.1-0.1-0.1-0.1-0.1l0,0h-3.6
		c-0.1,0-0.1,0.1-0.1,0.1v0v0.8h-2.2v-0.8c0-0.1-0.1-0.1-0.1-0.1l0,0h-3.6c-0.1,0-0.1,0.1-0.1,0.1c0,0,0,0,0,0v0.8h-2.2v-0.8
		c0-0.1-0.1-0.1-0.1-0.1c0,0,0,0,0,0h-3.6c-0.1,0-0.1,0.1-0.1,0.1l0,0v0.8h-2.2v-0.8c0-0.1-0.1-0.1-0.1-0.1c0,0,0,0,0,0H720
		c-0.1,0-0.1,0.1-0.1,0.1c0,0,0,0,0,0v0.8h-2.2v-0.8c0-0.1-0.1-0.1-0.1-0.1c0,0,0,0,0,0h-3.6c-0.1,0-0.1,0.1-0.1,0.1c0,0,0,0,0,0
		v0.8h-2.2v-0.8c0-0.1-0.1-0.1-0.1-0.1c0,0,0,0,0,0h-3.6c-0.1,0-0.1,0.1-0.1,0.1v0v0.8h-6.9c-2,0-3.6,1.6-3.6,3.6v1.6
		c0,2,1.6,3.6,3.6,3.6h119.4c2,0,3.6-1.6,3.6-3.6v-1.6C823.7,204.2,822.1,202.6,820.2,202.6z"/>
	<path class="st20" d="M725.1,195.3c-7.2,0-13-5.8-13-13c0-7.2,5.8-13,13-13s13,5.8,13,13C738.1,189.5,732.2,195.3,725.1,195.3z
		 M725.1,169.7c-7,0-12.7,5.7-12.7,12.7c0,7,5.7,12.7,12.7,12.7s12.7-5.7,12.7-12.7C737.7,175.3,732.1,169.7,725.1,169.7z"/>
	<rect x="797.4" y="140.2" class="st20" width="43.6" height="0.3"/>
	<rect x="766.6" y="230.6" class="st20" width="125.4" height="0.3"/>
	<rect x="730.1" y="246.3" class="st20" width="43.6" height="0.3"/>
	<rect x="777.7" y="228.8" class="st19" width="4.8" height="4.8"/>
	<path class="st20" d="M785.4,230.8h-5.8V225h5.8V230.8z M779.9,230.6h5.3v-5.3h-5.3V230.6z"/>
	<rect x="833.3" y="138.4" class="st19" width="4.8" height="4.8"/>
	<path class="st20" d="M841,140.5h-5.8v-5.8h5.8V140.5z M835.5,140.2h5.3v-5.3h-5.3V140.2z"/>
	<rect x="881.6" y="228.8" class="st19" width="4.8" height="4.8"/>
	<path class="st20" d="M889.3,230.8h-5.8V225h5.8V230.8z M883.7,230.6h5.3v-5.3h-5.3V230.6z"/>
	<path class="st20" d="M878,174.4h-0.4v-11.1c0-3.6-2.9-6.5-6.5-6.5l0,0h-23.6c-3.6,0-6.5,2.9-6.5,6.5c0,0,0,0,0,0v61.2
		c0,3.6,2.9,6.5,6.5,6.5c0,0,0,0,0,0h23.6c3.6,0,6.5-2.9,6.5-6.5c0,0,0,0,0,0v-42.1h0.4L878,174.4z"/>
	<path class="st19" d="M876.2,163.6v61.1c0,2.7-2.2,4.8-4.8,4.8h-23.7c-2.7,0-4.8-2.2-4.8-4.8v-61.1c0-2.7,2.2-4.8,4.8-4.8h2.9
		c-0.5,1.2,0.1,2.5,1.3,3c0.3,0.1,0.6,0.2,0.9,0.2h13.5c1.3,0,2.3-1,2.3-2.3c0-0.3-0.1-0.6-0.2-0.9h3.1
		C874.1,158.8,876.2,160.9,876.2,163.6z"/>
	<rect x="856" y="199" class="st20" width="7.1" height="2.1"/>
	<rect x="847.5" y="182.7" class="st20" width="24.2" height="0.9"/>
	<rect x="847.5" y="185.6" class="st20" width="24.2" height="0.9"/>
	<rect x="847.5" y="188.4" class="st20" width="24.2" height="0.9"/>
	<rect x="847.5" y="191.3" class="st20" width="24.2" height="0.9"/>
	<rect x="847.5" y="194.1" class="st20" width="24.2" height="0.9"/>
	<rect x="856.2" y="170.8" class="st18" width="4.2" height="4.2"/>
	<path class="st20" d="M857.8,171.9v5.1h5.1v-5.1H857.8z M862.7,176.7H858v-4.6h4.6V176.7z"/>
	<path class="st21" d="M876.2,218.1v6.5c0,2.7-2.2,4.8-4.8,4.8h-23.7c-2.7,0-4.8-2.2-4.8-4.8v-32.9l20,15.8l0.3,0.3l3.7,2.9l0.3,0.3
		L876.2,218.1z"/>
	<circle class="st18" cx="857.5" cy="220" r="7.5"/>
	<path class="st20" d="M751.9,246.7c-8.2,0-14.9-6.7-14.9-14.9c0-8.2,6.7-14.9,14.9-14.9c8.2,0,14.9,6.7,14.9,14.9
		C766.8,240,760.1,246.6,751.9,246.7z M751.9,217.2c-8,0-14.5,6.5-14.5,14.5s6.5,14.5,14.5,14.5c8,0,14.5-6.5,14.5-14.5
		C766.5,223.7,760,217.2,751.9,217.2z"/>
	<path class="st20" d="M859.7,225.8c-5.2,0-9.4-4.2-9.4-9.4c0-5.2,4.2-9.4,9.4-9.4s9.4,4.2,9.4,9.4
		C869.1,221.6,864.9,225.8,859.7,225.8z M859.7,207.3c-5,0-9.1,4.1-9.1,9.1c0,5,4.1,9.1,9.1,9.1s9.1-4.1,9.1-9.1l0,0
		C868.8,211.4,864.7,207.3,859.7,207.3z"/>
</g>
<g>
	<title>setup</title>
	<circle class="st22" cx="92" cy="558.4" r="66.5"/>
	<rect x="28.4" y="511.6" class="st23" width="70" height="44.5"/>
	
		<linearGradient id="SVGID_2_" gradientUnits="userSpaceOnUse" x1="9.258188e-02" y1="323.6918" x2="9.258188e-02" y2="369.3011" gradientTransform="matrix(1 0 0 -1 54.47 874.5)">
		<stop  offset="0" style="stop-color:#808080;stop-opacity:0.25"/>
		<stop  offset="0.54" style="stop-color:#808080;stop-opacity:0.12"/>
		<stop  offset="1" style="stop-color:#808080;stop-opacity:0.1"/>
	</linearGradient>
	<rect x="14.4" y="505.2" class="st24" width="80.3" height="45.6"/>
	<rect x="15.3" y="511.8" class="st25" width="78.4" height="37.9"/>
	
		<linearGradient id="SVGID_3_" gradientUnits="userSpaceOnUse" x1="-33.8463" y1="345.1033" x2="-6.6523" y2="345.1033" gradientTransform="matrix(1 0 0 -1 54.47 874.5)">
		<stop  offset="0" style="stop-color:#808080;stop-opacity:0.25"/>
		<stop  offset="0.54" style="stop-color:#808080;stop-opacity:0.12"/>
		<stop  offset="1" style="stop-color:#808080;stop-opacity:0.1"/>
	</linearGradient>
	<rect x="20.6" y="515" class="st26" width="27.2" height="28.7"/>
	<rect x="21.5" y="515.7" class="st19" width="25.7" height="27.4"/>
	<path class="st25" d="M41.5,526.5c-0.2-1.6-0.5-3.3-1.1-4.8c-0.6-1.5-1.6-2.9-3-3.8c-0.5-0.3-1.1-0.5-1.7-0.6
		c-1.1,0-2.1,0.7-2.7,1.6c-0.2,0.3-0.4,0.7-0.5,1c-1.1,0.2-1.9,1.1-2,2.2c-3,1.3-4.5,4.8-3.2,7.9c0.7,1.7,2.2,3,4,3.5v1
		c-2.6,0.7-4.5,3.1-4.5,5.8v2.8h12v-2.8c0-2.7-1.9-5.1-4.5-5.8v-1c2.6-0.7,4.5-3.1,4.5-5.8c0,0,0,0,0,0l0.7,1.5
		c0.6,1.4,1.3,3,1.1,4.5C41.9,531.5,41.8,528.9,41.5,526.5z"/>
	<rect x="15.3" y="506.1" class="st19" width="78.4" height="5.8"/>
	<rect x="57.7" y="523.7" class="st27" width="29.8" height="1.9"/>
	<rect x="57.7" y="531.9" class="st28" width="29.8" height="1.9"/>
	<rect x="57.5" y="527.8" class="st23" width="17.6" height="1.9"/>
	<rect x="57.5" y="535.9" class="st29" width="12" height="1.9"/>
	<rect x="71.6" y="535.9" class="st30" width="12" height="1.9"/>
	<rect x="136.7" y="516.5" class="st31" width="39.5" height="18.4"/>
	
		<linearGradient id="SVGID_4_" gradientUnits="userSpaceOnUse" x1="97.2495" y1="342.3784" x2="97.2495" y2="362.394" gradientTransform="matrix(1 0 0 -1 54.47 874.5)">
		<stop  offset="0" style="stop-color:#808080;stop-opacity:0.25"/>
		<stop  offset="0.54" style="stop-color:#808080;stop-opacity:0.12"/>
		<stop  offset="1" style="stop-color:#808080;stop-opacity:0.1"/>
	</linearGradient>
	<rect x="130.5" y="512.1" class="st32" width="42.4" height="20"/>
	<rect x="132.1" y="512.6" class="st25" width="39.5" height="18.4"/>
	<rect x="138.1" y="516.6" class="st33" width="23" height="2.2"/>
	<rect x="138.1" y="521.6" class="st34" width="12" height="2.2"/>
	<rect x="88.5" y="593.6" class="st23" width="92.2" height="24.8"/>
	
		<linearGradient id="SVGID_5_" gradientUnits="userSpaceOnUse" x1="75.1286" y1="259.8689" x2="75.1286" y2="286.2673" gradientTransform="matrix(1 0 0 -1 54.47 874.5)">
		<stop  offset="0" style="stop-color:#808080;stop-opacity:0.25"/>
		<stop  offset="0.54" style="stop-color:#808080;stop-opacity:0.12"/>
		<stop  offset="1" style="stop-color:#808080;stop-opacity:0.1"/>
	</linearGradient>
	<rect x="82.8" y="588.2" class="st35" width="93.5" height="26.4"/>
	<rect x="83.5" y="589.1" class="st25" width="92.2" height="24.6"/>
	
		<linearGradient id="SVGID_6_" gradientUnits="userSpaceOnUse" x1="51.5669" y1="263.8467" x2="51.5669" y2="282.2877" gradientTransform="matrix(1 0 0 -1 54.47 874.5)">
		<stop  offset="0" style="stop-color:#808080;stop-opacity:0.25"/>
		<stop  offset="0.54" style="stop-color:#808080;stop-opacity:0.12"/>
		<stop  offset="1" style="stop-color:#808080;stop-opacity:0.1"/>
	</linearGradient>
	<circle class="st36" cx="106" cy="601.4" r="9.2"/>
	<circle class="st19" cx="106" cy="601.4" r="8.2"/>
	<g class="st37">
		<rect x="122.2" y="595.3" class="st19" width="14.6" height="2.6"/>
		<rect x="122.2" y="600.2" class="st19" width="40.2" height="2.6"/>
		<rect x="122.2" y="605" class="st19" width="40.2" height="2.6"/>
	</g>
	<polygon class="st25" points="111.4,598.1 109.6,596.8 104.9,603 102.2,601 100.9,602.8 104.4,605.5 104.4,605.5 105.3,606.1 	"/>
</g>
<g>
	<title>web_developer</title>
	<path class="st20" d="M856.3,770.6c-1.2,4.4-5.2,7.1-5.2,7.1s-2.2-4.4-1-8.8c1.2-4.4,5.2-7.1,5.2-7.1S857.5,766.2,856.3,770.6z"/>
	<path class="st19" d="M854.6,769.7c-3.2,3.2-3.6,8-3.6,8s4.9-0.3,8.1-3.5c3.2-3.2,3.6-8,3.6-8S857.8,766.5,854.6,769.7z"/>
	<path class="st38" d="M737.8,754h6.1l15-5.9c0,0,10.6-4.3,9.8,3.9c-0.9,8.2-2.4,19.3-2.4,19.3s-4.8-2.2-7.4-1.5s-0.9-13.2-0.9-13.2
		s-21.2,10.2-23.2,8.9s-2.4-10.4-2.4-10.4L737.8,754z"/>
	<path class="st21" d="M737.8,754h6.1l15-5.9c0,0,10.6-4.3,9.8,3.9c-0.9,8.2-2.4,19.3-2.4,19.3s-4.8-2.2-7.4-1.5s-0.9-13.2-0.9-13.2
		s-21.2,10.2-23.2,8.9s-2.4-10.4-2.4-10.4L737.8,754z"/>
	<path class="st39" d="M747.3,735l7.3,10.6l17.1,14.3c0,0,15.8,3.7,13.7,6.3c-2.2,2.6-15.4-2.6-15.4-2.6s-19.7-14.3-20.4-15.4
		c-0.7-1.1-7.8-11.3-7.8-11.3L747.3,735z"/>
	<path class="st21" d="M747.3,735l7.3,10.6l17.1,14.3c0,0,15.8,3.7,13.7,6.3c-2.2,2.6-15.4-2.6-15.4-2.6s-19.7-14.3-20.4-15.4
		c-0.7-1.1-7.8-11.3-7.8-11.3L747.3,735z"/>
	<path class="st40" d="M743,726.5l4.8,9.3c0,0-1.1,4.6-2.8,5c-1.7,0.4-9.1-5.6-9.1-5.6L743,726.5z"/>
	<path class="st21" d="M743,726.5l4.8,9.3c0,0-1.1,4.6-2.8,5c-1.7,0.4-9.1-5.6-9.1-5.6L743,726.5z"/>
	<path class="st38" d="M801.2,749.2l1.4,5.8c0,0.1,0,0.1,0,0.2l-6.4,20c-0.1,0.2-0.3,0.3-0.5,0.2c-0.1,0-0.2-0.2-0.3-0.3l-0.9-7.8
		c0-0.1,0-0.1,0-0.2l5.9-18c0.1-0.2,0.3-0.3,0.5-0.2C801.1,749,801.1,749.1,801.2,749.2z"/>
	<polygon class="st18" points="800.7,749.7 802,754.7 796.3,772.9 795,767.2 	"/>
	<path class="st38" d="M772.3,776.8c0.2,0.7,22.5-0.2,22.8-0.4c0.2-0.3,0.3-0.6,0.5-0.9c0.2-0.4,0.4-0.9,0.4-0.9l-0.9-7l-22.1-0.8
		c0,0-0.6,5.9-0.7,8.7C772.2,776.2,772.2,776.6,772.3,776.8z"/>
	<polygon class="st21" points="792.2,768.5 792.6,774.6 782.9,774.6 782.9,768.5 	"/>
	<polygon class="st21" points="779.6,770.5 779.7,770.5 779.4,773.1 774,773.1 774,770.5 	"/>
	<path class="st21" d="M772.3,776.8c0.2,0.7,22.5-0.2,22.8-0.4c0.2-0.3,0.3-0.6,0.5-0.9h-23.3C772.2,776.2,772.2,776.6,772.3,776.8z
		"/>
	<circle class="st39" cx="746.2" cy="713.7" r="9.8"/>
	<path class="st39" d="M745.6,722.4c0,0-3.3,5.6-3.9,8.7c-0.7,3-9.8-6.1-9.8-6.1l-1.2-3.1c0,0,8.6-4,7.9-7.3
		S745.6,722.4,745.6,722.4z"/>
	<path class="st39" d="M747.3,739.3l8.9,11.7l21.2,15.8c0,0,15.4,3.3,11.9,5.6c-3.5,2.4-13.4-2.2-13.4-2.2s-21.5-11.5-26-16.3
		c-4.6-4.8-13-12.8-13-12.8L747.3,739.3z"/>
	<path class="st38" d="M735.4,757.5l2.6,4.1l15.5-4.9c3.4-1.1,7.1-0.7,10.2,1.2c2.7,1.7,4.4,4.4,0.5,8.4c-7.8,8-13,3.7-13,3.7
		s-26.2,12.4-30.6,6.3c-4.3-6.1-4.6-9.1-4.6-9.1S732.8,756.8,735.4,757.5z"/>
	<path class="st40" d="M767.9,771.8c0,0,6.9,4.6-1.3,6.7c-8.2,2.2-14.3-0.9-14.3-0.9s-7.2,0-7.2-3.7c0-3.7,2.4-4.1,2.4-4.1l7.4,1.1
		C754.9,770.9,763.8,768.5,767.9,771.8z"/>
	<path class="st38" d="M754.2,711.2c0.7,0.3,1.3,0.6,2,0.7c0.7,0.1,1.5-0.2,1.9-0.8c0.2-0.3,0.2-0.8,0.2-1.1c0-1.2-0.1-2.5-0.8-3.4
		c-0.5-0.6-1.2-1-1.7-1.5c-0.4-0.4-0.6-0.9-0.8-1.4c-1-1.8-2.4-3.6-4.4-4.1c-0.8-0.2-1.7-0.2-2.6-0.2l-5,0.1c-0.8,0-1.6,0-2.4,0.3
		c-1.6,0.5-2.8,1.8-3.9,3.1c-0.8,1-1.6,2-2.2,3.1c-0.9,1.6-1.3,3.4-1.3,5.3c0,0.5,0.1,0.9,0.2,1.4c0.1,0.4,0.3,0.8,0.5,1.2
		c0.9,1.8,1.5,4.1,0.4,5.9c1.8-0.8,3.7-1.7,4.9-3.3c0.5-0.7,1-1.5,1.7-2c0.7-0.5,1.9-0.6,2.4,0.2c0.2,0.3,0.2,0.6,0.2,1
		c0,0.6,0,1.2,0.3,1.7c0.2,0.5,0.8,0.9,1.4,0.8c0.9-0.3,0.9-1.7,1.6-2.4c0.6-0.5,1.4-0.4,2.1-0.6c0.8-0.3,1.4-1,1.8-1.8
		c0.3-0.6,0.3-2.2,0.8-2.5C752.2,710.3,753.6,711,754.2,711.2z"/>
	<path class="st40" d="M730,720.8c0.4-0.1,0.9-0.1,1.3,0c1.4,0.4,4.5,1.4,5.2,2.9c0.9,2,3.9,5,3.9,5s4.1,4.1,3.3,6.9
		c-0.9,2.8-4.1,6.1-4.1,6.1s0.9,13.4-3.5,16.9c-4.3,3.5-6.1,1.1-6.1,4.3s-13.4,13.4-16,7.2c0,0,1.3-11.7,0.9-15.8
		C714.4,750.2,715,724.8,730,720.8z"/>
	<path class="st40" d="M736.9,726.3c0,0,13.2,9.8,10.8,13.9c0,0-8,3.9-9.8,3.7c-1.7-0.2-8.5-7.8-10.2-8.5
		C726.1,734.7,725.2,723,736.9,726.3z"/>
	<circle class="st18" cx="796" cy="694" r="10.7"/>
	<path class="st20" d="M884.5,680.1h-60v-12.6h60V680.1z M824.7,679.8h59.5v-12h-59.5V679.8z"/>
	<rect x="820.4" y="670" class="st19" width="59.8" height="12.3"/>
	<circle class="st19" cx="782.6" cy="657.4" r="0.9"/>
	<circle class="st19" cx="785.7" cy="657.4" r="0.9"/>
	<circle class="st19" cx="788.9" cy="657.4" r="0.9"/>
	<path class="st20" d="M891.2,727.3H779.9v-72.5h111.3V727.3z M780.2,727H891v-71.9H780.2V727z"/>
	<rect x="780.1" y="658.9" class="st20" width="111.1" height="0.3"/>
	<path class="st20" d="M782.8,658c-0.6,0-1.1-0.5-1.1-1.1s0.5-1.1,1.1-1.1c0.6,0,1.1,0.5,1.1,1.1C783.9,657.5,783.4,658,782.8,658z
		 M782.8,656.2c-0.4,0-0.8,0.4-0.8,0.8s0.4,0.8,0.8,0.8c0.4,0,0.8-0.4,0.8-0.8C783.6,656.5,783.3,656.2,782.8,656.2z"/>
	<path class="st20" d="M786,658c-0.6,0-1.1-0.5-1.1-1.1s0.5-1.1,1.1-1.1c0.6,0,1.1,0.5,1.1,1.1C787.1,657.5,786.6,658,786,658z
		 M786,656.2c-0.4,0-0.8,0.4-0.8,0.8s0.4,0.8,0.8,0.8s0.8-0.4,0.8-0.8C786.8,656.5,786.4,656.2,786,656.2z"/>
	<path class="st20" d="M789.2,658c-0.6,0-1.1-0.5-1.1-1.1s0.5-1.1,1.1-1.1s1.1,0.5,1.1,1.1c0,0,0,0,0,0
		C790.2,657.5,789.8,658,789.2,658z M789.2,656.2c-0.4,0-0.8,0.4-0.8,0.8c0,0.4,0.4,0.8,0.8,0.8s0.8-0.4,0.8-0.8c0,0,0,0,0,0
		C790,656.5,789.6,656.2,789.2,656.2z"/>
	<rect x="814.8" y="659" class="st20" width="0.3" height="68.3"/>
	<rect x="827.4" y="692.6" class="st18" width="19.4" height="2.6"/>
	<rect x="858" y="692.6" class="st18" width="19.4" height="2.6"/>
	<path class="st20" d="M848,694h-19.7v-2.9H848V694z M828.6,693.7h19.2v-2.4h-19.2V693.7z"/>
	<rect x="827.4" y="713" class="st18" width="19.4" height="2.6"/>
	<path class="st20" d="M848,714.5h-19.7v-2.9H848V714.5z M828.6,714.2h19.2v-2.4h-19.2V714.2z"/>
	<rect x="827.5" y="702.5" class="st18" width="50" height="2.6"/>
	<path class="st20" d="M878.7,704.3h-50.2v-2.9h50.2V704.3z M828.7,704h49.7v-2.4h-49.7V704z"/>
	<path class="st20" d="M878.6,694h-19.7v-2.9h19.7V694z M859.2,693.7h19.2v-2.4h-19.2L859.2,693.7z"/>
	<path class="st20" d="M797.8,701.9c-6,0-10.9-4.9-10.9-10.9s4.9-10.9,10.9-10.9s10.9,4.9,10.9,10.9
		C808.7,697,803.8,701.9,797.8,701.9z M797.8,680.5c-5.8,0-10.5,4.7-10.5,10.5s4.7,10.5,10.5,10.5s10.5-4.7,10.5-10.5
		C808.4,685.2,803.6,680.5,797.8,680.5z"/>
	<rect x="837.2" y="777.5" class="st20" width="46.6" height="0.3"/>
</g>
<g>
	<title>server_push</title>
	<circle class="st18" cx="94.7" cy="118.3" r="11.5"/>
	<path class="st18" d="M97.3,126.9c-7.9,0-14.2-6.4-14.2-14.2s6.4-14.2,14.2-14.2s14.2,6.4,14.2,14.2
		C111.5,120.6,105.1,126.9,97.3,126.9z M97.3,98.6c-7.8,0-14.1,6.3-14.1,14.1s6.3,14.1,14.1,14.1s14.1-6.3,14.1-14.1
		C111.3,104.9,105,98.6,97.3,98.6z"/>
	<rect x="74.3" y="26.1" class="st20" width="71.6" height="40.7"/>
	<path class="st20" d="M157.7,67H74.1V19.3h83.6V67z M74.5,66.6h82.8V19.7H74.5V66.6z"/>
	<circle class="st19" cx="110.1" cy="52.2" r="8.9"/>
	<path class="st25" d="M111.8,52.8c-0.7-0.8-1.4-2.2-1.8-3.2c-0.4,1.1-1.1,2.4-1.8,3.2l1.6-0.6v3.6h0.4v-3.6L111.8,52.8z"/>
	<polygon class="st40" points="119.7,21 104.3,21 104.3,18 119.7,18 121.2,19.5 	"/>
	<polygon class="st20" points="104.5,21 89.1,21 89.1,18 104.5,18 106,19.5 	"/>
	<polygon class="st19" points="89.5,21 74.1,21 74.1,18 89.5,18 91,19.5 	"/>
	<path class="st20" d="M21.3,129.7l-0.2-0.1c0,0-4.5-1.7-6.6-5.6c-2.1-3.9-1.1-8.5-1.1-8.6l0-0.2l0.2,0.1c0,0,4.5,1.7,6.6,5.6
		c2.1,3.9,1.1,8.5,1.1,8.6L21.3,129.7z M14.9,123.8c1.8,3.3,5.3,5,6.2,5.3c0.2-1,0.7-4.8-1.1-8.1c-1.8-3.3-5.3-5-6.2-5.3
		C13.6,116.7,13.1,120.6,14.9,123.8z"/>
	<path class="st19" d="M16.1,122.6c3.8,2.3,5.2,6.7,5.2,6.7s-4.6,0.8-8.4-1.4s-5.2-6.7-5.2-6.7S12.4,120.4,16.1,122.6z"/>
	<path class="st39" d="M62.4,64.6c0,0,6.5,3.4,4.1,6.5C64.1,74.2,60,67.5,60,67S62.4,64.6,62.4,64.6z"/>
	<path class="st41" d="M55.2,55.8c0,0,4.4,5.3,5.6,6c1.2,0.7,2.2,1.5,2.2,1.7s1,1.5,1,1.5L60,68.4c0,0-4.4-5.8-4.8-5.8
		C54.7,62.6,55.2,55.8,55.2,55.8z"/>
	<polygon class="st39" points="33.4,118 30.5,122.9 34.8,124.8 39,123.6 36.5,117.5 	"/>
	<path class="st38" d="M41.6,65.3l-2.4,23c0,0-5.3,10.9-5.3,19.6S31.9,119,31.9,119l6,1l6.5-21.3l10.9-19.8L52.3,59l-5.3-1.9
		L41.6,65.3z"/>
	<path class="st38" d="M32.9,122.6c0,0-1.8-2.5-1.8-1.8c0,0.7-3.5,8.8-0.6,8.8s10.6-0.5,12.1,0s6.3-0.5,5.8-3.4
		c-0.5-2.9-6.3-2.7-6.3-2.7s-3.5-4.9-4.4-3.2l-0.9,1.7L32.9,122.6z"/>
	<polygon class="st39" points="59,118 56.1,122.9 60.5,124.8 64.6,123.6 62.2,117.5 	"/>
	<path class="st38" d="M58.6,122.6c0,0-1.8-2.3-1.8-1.6s-3.5,8.6-0.6,8.6s10.6-0.5,12.1,0c1.5,0.5,6.3-0.5,5.8-3.4s-6.3-2.7-6.3-2.7
		s-3.5-4.9-4.4-3.2l-0.9,1.7L58.6,122.6z"/>
	<path class="st38" d="M37.7,65c0,0,0.7,6.5,4.6,12.6c3.9,6,9.4,16.7,9.4,16.7S51.3,105,54,111c2.7,6,3.1,9.2,3.1,9.2l6.5-1.7
		c0,0-3.6-20.3-2.2-24.9C62.9,89,55.9,65,55.9,65l-6.5-5.6l-8.5-1L37.7,65z"/>
	<circle class="st39" cx="51.7" cy="19.7" r="5.6"/>
	<path class="st39" d="M47.1,20l-2.9,6.2l8.2,5.7c0,0-1-6.7,0.9-8.5C55.1,21.7,47.1,20,47.1,20z"/>
	<path class="st41" d="M53.5,32.4c0,0-3.9-8-7-8c-3.1,0-11.4,5.6-11.1,6.8c0.2,1.2,0.2,1.5,0.2,2.2s-1.7,0.7-0.2,1.2
		c1.5,0.5,1.7,1,1.7,1l-1.2,31c0,0,5.3,1.9,7.3,1.2s3.9-5.6,3.9-5.6s-0.5,6.5,1.5,6.3s9.2-0.7,9.4-1.7c0.2-1-1.5-22.3-1.5-22.3
		L53.5,32.4z"/>
	<path class="st39" d="M35.8,68.2c0,0-2.9,10.6,1.2,9.7c4.1-1,2.9-9.4,2.9-9.4L35.8,68.2z"/>
	<path class="st41" d="M40.9,30.4l-7,17.9c0,0-1,1.9,0,3.4c1,1.5-0.5,10.2,0.5,12.1s1,5.3,1,5.3l5.6,0.5l1.2-21.3l6.3-13.6
		C48.4,34.8,47.9,29.2,40.9,30.4z"/>
	<path class="st21" d="M42.7,29.8c0,0-4.4,1.2-5.8,5.6L42.7,29.8z"/>
	<path class="st38" d="M48,22.2c0.5,0,1.1,0.2,1.6,0.2c1.9,0.3,3.9-1.1,4.3-3c0-0.3,0.1-0.5,0.2-0.7c0.3-0.5,1-0.6,1.5-0.5
		c0.6,0.1,1.1,0.4,1.6,0.4c0.9,0,1.7-0.5,2.2-1.2c0.5-0.7,0.6-1.7,0.5-2.5l-0.4,0.4c-0.2-0.4-0.2-0.8-0.2-1.2
		c-0.5-0.1-0.9,0-1.3,0.3c-0.4,0-0.1-0.7-0.4-0.9c-0.1-0.1-0.3-0.1-0.4-0.1c-0.8,0-1.4-0.6-2-1.1c-1.1-0.8-2.3-1.4-3.7-1.7
		c-0.9-0.2-1.8-0.2-2.7,0.1c-0.7,0.3-1.3,0.8-1.8,1.3c-1.3,1.3-2.5,2.8-3,4.5c-0.4,1.4-0.5,3,0,4.4c0.2,0.7,0.9,3.3,1.9,3.4
		C47.3,24.4,46.5,22.3,48,22.2z"/>
	<polygon class="st21" points="48.4,40 42.7,48.4 40.9,67.8 	"/>
	<rect x="7.8" y="129.5" class="st20" width="89.5" height="0.4"/>
	<path class="st19" d="M73.5,79l-13.3-8.5c4.8-4.2,8.2-9,9.3-14.5l13.3,8.5C78.5,68.4,75.3,73.4,73.5,79z"/>
	
		<rect x="74.2" y="58.9" transform="matrix(0.5402 -0.8415 0.8415 0.5402 -18.8082 91.5721)" class="st20" width="0.4" height="8.2"/>
	
		<rect x="73.4" y="60.2" transform="matrix(0.5402 -0.8415 0.8415 0.5402 -20.2619 91.4693)" class="st20" width="0.4" height="8.2"/>
	
		<rect x="72.6" y="61.5" transform="matrix(0.5402 -0.8415 0.8415 0.5402 -21.7155 91.3665)" class="st20" width="0.4" height="8.2"/>
	
		<rect x="71.7" y="62.8" transform="matrix(0.5402 -0.8415 0.8415 0.5402 -23.1692 91.2636)" class="st20" width="0.4" height="8.2"/>
	<rect x="70.9" y="64" transform="matrix(0.5402 -0.8415 0.8415 0.5402 -24.6228 91.1608)" class="st20" width="0.4" height="8.2"/>
	
		<rect x="70.1" y="65.3" transform="matrix(0.5402 -0.8415 0.8415 0.5402 -26.0765 91.0579)" class="st20" width="0.4" height="8.2"/>
	
		<rect x="69.3" y="66.6" transform="matrix(0.5402 -0.8415 0.8415 0.5402 -27.5302 90.9551)" class="st20" width="0.4" height="8.2"/>
	
		<rect x="68.5" y="67.9" transform="matrix(0.5402 -0.8415 0.8415 0.5402 -28.9838 90.8522)" class="st20" width="0.4" height="8.2"/>
	<path class="st18" d="M76.1,76.4l-15.5-2.7c2.8-5.8,4-11.4,3-17l15.5,2.7C76.6,64.7,75.6,70.6,76.1,76.4z"/>
	
		<rect x="70.5" y="57.2" transform="matrix(0.1713 -0.9852 0.9852 0.1713 -1.7701 120.464)" class="st20" width="0.4" height="8.2"/>
	
		<rect x="70.3" y="58.7" transform="matrix(0.1713 -0.9852 0.9852 0.1713 -3.4603 121.4482)" class="st20" width="0.4" height="8.2"/>
	<rect x="70" y="60.2" transform="matrix(0.1713 -0.9852 0.9852 0.1713 -5.1511 122.4324)" class="st20" width="0.4" height="8.2"/>
	
		<rect x="69.8" y="61.7" transform="matrix(0.1713 -0.9852 0.9852 0.1713 -6.842 123.4167)" class="st20" width="0.4" height="8.2"/>
	
		<rect x="69.5" y="63.2" transform="matrix(0.1713 -0.9852 0.9852 0.1713 -8.5328 124.4009)" class="st20" width="0.4" height="8.2"/>
	
		<rect x="69.2" y="64.7" transform="matrix(0.1713 -0.9852 0.9852 0.1713 -10.2236 125.3852)" class="st20" width="0.4" height="8.2"/>
	
		<rect x="69" y="66.2" transform="matrix(0.1713 -0.9852 0.9852 0.1713 -11.9144 126.3694)" class="st20" width="0.4" height="8.2"/>
	
		<rect x="68.7" y="67.7" transform="matrix(0.1713 -0.9852 0.9852 0.1713 -13.6052 127.3537)" class="st20" width="0.4" height="8.2"/>
</g>
<polygon class="st19" points="78.6,248.8 84.5,250.7 88.1,255.7 88.1,261.9 84.5,266.9 78.6,268.8 72.7,266.9 69.1,261.9 
	69.1,255.7 72.7,250.7 "/>
<polygon class="st19" points="111.3,198.8 132.5,211.3 132.5,236.3 111.3,248.8 90.2,236.3 90.2,211.3 "/>
<polygon class="st19" points="828.4,533.7 834.3,535.7 837.9,540.7 837.9,546.8 834.3,551.8 828.4,553.7 822.5,551.8 818.9,546.8 
	818.9,540.7 822.5,535.7 "/>
<polygon class="st19" points="779.2,543.1 800.3,555.6 800.3,580.6 779.2,593.1 758,580.6 758,555.6 "/>
<polygon class="st42" points="452.8,296.6 504.4,327.1 504.4,388 452.8,418.5 401.2,388 401.2,327.1 "/>
<polygon class="st43" points="521.5,328 573.2,358.5 573.2,419.4 521.5,449.9 469.9,419.4 469.9,358.5 "/>
<polygon class="st44" points="605.8,22.4 616,25.8 622.4,34.6 622.4,45.5 616,54.3 605.8,57.7 595.5,54.3 589.1,45.5 589.1,34.6 
	595.5,25.8 "/>
<polygon class="st44" points="251.1,687.6 261.4,690.9 267.7,699.7 267.7,710.6 261.4,719.4 251.1,722.8 240.8,719.4 234.4,710.6 
	234.4,699.7 240.8,690.9 "/>
<polygon class="st45" points="401.2,99.1 437.7,118.3 437.7,156.8 401.2,176.1 364.7,156.8 364.7,118.3 "/>
<polygon class="st46" points="584.8,535.9 621.3,555.2 621.3,593.7 584.8,612.9 548.3,593.7 548.3,555.2 "/>
</svg>
