<?xml version="1.0" encoding="utf-8"?>
<!-- Generator: Adobe Illustrator 24.0.1, SVG Export Plug-In . SVG Version: 6.00 Build 0)  -->
<svg version="1.1" id="Layer_1" xmlns="http://www.w3.org/2000/svg" xmlns:xlink="http://www.w3.org/1999/xlink" x="0px" y="0px"
	 viewBox="0 0 200 200" style="enable-background:new 0 0 200 200;" xml:space="preserve">
<style type="text/css">
	.st0{opacity:0.7;fill:#C5FFFC;}
	.st1{opacity:0.7;fill:#B2F7F2;}
	.st2{fill:none;}
	.st3{fill:#FFFFFF;}
	.st4{font-family:'MyriadPro-Regular';}
	.st5{font-size:61px;}
	.st6{fill:none;stroke:#FFFFFF;stroke-width:5;stroke-miterlimit:10;}
</style>
<polygon class="st0" points="65.5,23 117.1,53.5 117.1,114.4 65.5,144.9 13.9,114.4 13.9,53.5 "/>
<polygon class="st1" points="134.2,54.4 185.9,84.9 185.9,145.8 134.2,176.3 82.6,145.8 82.6,84.9 "/>
<rect x="52" y="80.6" class="st2" width="87" height="61.4"/>
<text transform="matrix(1 0 0 1 51.9712 123.9463)" class="st3 st4 st5">W</text>
<line class="st6" x1="42.5" y1="32.5" x2="55.5" y2="83.5"/>
<line class="st6" x1="133.1" y1="123.4" x2="148.5" y2="170.5"/>
<polygon class="st0" points="51.9,157 57.5,160.3 57.5,166.9 51.9,170.3 46.3,166.9 46.3,160.3 "/>
<polygon class="st0" points="147.9,28 153.5,31.3 153.5,37.9 147.9,41.3 142.3,37.9 142.3,31.3 "/>
<polygon class="st0" points="123,40 126.5,42.1 126.5,46.2 123,48.3 119.5,46.2 119.5,42.1 "/>
</svg>
