<?xml version="1.0" encoding="utf-8"?>
<!-- Generator: Adobe Illustrator 24.0.1, SVG Export Plug-In . SVG Version: 6.00 Build 0)  -->
<svg version="1.1" id="a7911dd8-4c59-47c4-8e89-f08275b909c0"
	 xmlns="http://www.w3.org/2000/svg" xmlns:xlink="http://www.w3.org/1999/xlink" x="0px" y="0px" viewBox="0 0 902.1 742.1"
	 style="enable-background:new 0 0 902.1 742.1;" xml:space="preserve">
<style type="text/css">
	.st0{fill:#E6E6E6;}
	.st1{fill:#63FFFB;}
	.st2{fill:#FFFFFF;}
	.st3{fill:#2F2E41;}
	.st4{fill:#FFB8B8;}
	.st5{opacity:0.2;enable-background:new    ;}
	.st6{fill:#3F3D56;}
</style>
<path class="st0" d="M796.7,601.4c-18.2,35.5-41.2,69.8-70.4,100.8c-0.6,0.7-1.3,1.4-2,2.1l-69.1-32.7c0.4-0.7,0.9-1.5,1.4-2.4
	c29.7-50.8,208.9-360.6,203.2-430.8C860.5,244.3,881.8,435.7,796.7,601.4z"/>
<path class="st0" d="M739.7,708.5c-1,0.5-2,1.1-3,1.6l-51.8-24.5c0.7-0.5,1.6-1.1,2.5-1.8c15.9-11.4,63.1-45.6,109.3-82.4
	c49.7-39.5,98.2-82,105.4-102.2C900.6,503.8,855.2,645.1,739.7,708.5z"/>
<ellipse class="st0" cx="267" cy="715.6" rx="267" ry="26.4"/>
<circle class="st1" cx="120.8" cy="648.1" r="80"/>
<path class="st2" d="M152.8,614.5H88.8c-5.9,0-10.7,4.8-10.7,10.7v45.8c0,5.9,4.8,10.7,10.7,10.7h64.1c5.9,0,10.7-4.8,10.7-10.7
	v-45.8C163.5,619.3,158.7,614.5,152.8,614.5z M152.8,620.6c0.4,0,0.8,0.1,1.1,0.1l-33.2,26.5l-33-26.5c0.3-0.1,0.6-0.1,0.9-0.1
	H152.8z M152.8,675.5H88.8c-2.5,0-4.6-2.1-4.6-4.6v-45.4l34.7,27.9c1.1,0.9,2.7,0.9,3.8,0l34.7-27.7v45.1
	C157.4,673.5,155.4,675.5,152.8,675.5z"/>
<polygon class="st3" points="340.4,445.3 275,449.5 257.5,387.4 315,374 "/>
<path class="st4" d="M429.5,526.6l17.9,0.1c6.9,0.1,12.5-5.5,12.6-12.4c0-0.7,0-1.4-0.2-2.1l0,0c-1.1-6.8-7.5-11.4-14.3-10.3
	c-1.2,0.2-2.4,0.6-3.5,1.1l-16.9,8.3l-57.7,12.9L342.7,499l-14.2,23.4l33.4,25.8L429.5,526.6z"/>
<path class="st4" d="M426.2,711.5l-21.1,4.1c-14.4-45.4-30-88.4-30-121.7c-20.4,22.7-45.7,35.7-75.4,39.7l3.2-50.3l24.3-13
	l37.2-17.2c3.3-1.5,6.8-2.4,10.4-2.6l0,0c14.4-0.8,27.1,9.5,29.4,23.8L426.2,711.5z"/>
<path class="st3" d="M422.9,691.2c0,0,2-0.9,10.1,9.7c0,0,25.8,4.8,21.5,16.4s-37.4,11.3-40.6,9.5s-28.2-1.7-26.5-9.6
	s11.7-16.7,11.7-16.7s4.6,9.3,11.7,9.3c9.6,0.1,12.8-8.1,11.2-16.2C422.1,693.6,423,691.3,422.9,691.2z"/>
<path class="st3" d="M260.7,663.6c0,0,3.2,8.6-11.1,13.8c0,0-14,26.4-25.2,17.8s0.4-44.5,3.4-47.3s11.5-30.1,19.5-25.6
	s14.2,18.4,14.2,18.4s-25.8,8.3-13.6,27.4C248,668.2,253.3,668.6,260.7,663.6z"/>
<circle class="st4" cx="290.1" cy="407.9" r="26.6"/>
<path class="st4" d="M313,478.3h-46.2l-9.7-28.4c16.9-5.2,12.9-19.8,9.7-34.1H313c-9,17.9-20.1,43.2,1.6,47.9L313,478.3z"/>
<path class="st3" d="M325.2,627.5l-8.4,6.4c-7.4,5.6-17.1,6.9-25.7,3.3l0,0c-24.1-18-43.7-12.6-59.2,14.6
	c-18.6-21-20.7-51.4-4.1-82.7l92.1,2l18.7-5.7L325.2,627.5z"/>
<path class="st4" d="M294.5,721.5L294.5,721.5c-10.9,3.4-22.6-1.6-27.8-11.7c-8.3-7.3-15.3-17.7-21.3-30.4
	c-4.3-9.3-8.1-18.9-11.2-28.7c-4.2-12.9,2.8-27.1,15.9-30.9c0.4-0.1,0.8-0.2,1.2-0.3c17.4-4.5,35.3,5.6,41.2,22.5l17.3,49.3
	c4.3,12.3-2.1,25.7-14.4,30C295.1,721.3,294.8,721.4,294.5,721.5z"/>
<path class="st5" d="M242.5,673.8c0,0,20.3,22.7,24.3,35.7"/>
<path class="st4" d="M163.8,566.6l-6.8,16.6c-2.6,6.4,0.4,13.6,6.8,16.2c0.6,0.3,1.3,0.5,2,0.6l0,0c6.7,1.5,13.4-2.7,14.9-9.4
	c0.3-1.2,0.4-2.5,0.3-3.7l-1.5-18.8l9.5-58.4l32.7-13.6l-16.4-21.9l-36.3,21.4L163.8,566.6z"/>
<path class="st1" d="M326,569.1c-23.3,39.1-60.8,32.3-100.6,1.6c16.8-12.5,6.5-48.7-8.1-51.1c-15.1-2.5-16.9-33.4-22.7-48.7l70.6-26
	l19.1,15l19.1-4.5l7.8,2.8c10.4,3.7,17.4,13.5,17.6,24.5C312.7,506,300.8,530.7,326,569.1z"/>
<path class="st1" d="M334.9,537.5c0,0-3.6-18.5-15.4-12.7s-12.6-10.4-12.6-10.4l9.3-53.9l38.1,40.6L334.9,537.5z"/>
<path class="st3" d="M314.9,373.7c0,0,13.5,5,13.6,23c0,3-0.4,6-1.3,8.9c-0.9,3.3-1.7,10.4,4.1,20c3.8,6.2,7.2,12.7,10.2,19.3l0,0
	l-15.2,1.3l-2.3-25.2c-1.1-12.2-4-24.2-8.6-35.6l-0.1-0.2c0,0-7.1,12.1-20.3,11.6l4.9-4.6c0,0-16.7,6.1-25.7,7.3
	c-3.1,0.4-5.3,3.3-4.9,6.4c0.1,1.1,0.6,2.2,1.4,3.1c0.1,0.1,0.1,0.1,0.2,0.2c5.5,5.9,16.3,19.6,9.3,29.7c-7,10.2-1.4,13.2-1.4,13.2
	l-10.2-6.1l-4.6-3l-0.1,3.8l-24.5-3.8c0,0-6.6-1.2,8.2-16.8c0,0,4-6.1,2.5-11.6c-1.2-4.1-1.4-8.5-0.6-12.8
	C253.4,384.3,267.2,349.4,314.9,373.7z"/>
<path id="b82a9922-ead1-40af-af3b-f133b244cde7" class="st6" d="M799.3,172.9h-4V63.4c0-35-28.4-63.4-63.4-63.4l0,0H499.8
	c-35,0-63.4,28.4-63.4,63.4v0v601c0,35,28.4,63.4,63.4,63.4c0,0,0,0,0,0h232.1c35,0,63.4-28.4,63.4-63.4c0,0,0,0,0,0V250.9h4
	L799.3,172.9z"/>
<path id="b2a7827b-2d2c-407d-93be-35e4c67116bc" class="st2" d="M734.4,16.5h-30.3c4.7,11.5-0.8,24.6-12.3,29.3
	c-2.7,1.1-5.6,1.7-8.5,1.7h-133c-12.4,0-22.5-10.1-22.5-22.5c0-2.9,0.6-5.8,1.7-8.5h-28.3c-26.1,0-47.3,21.2-47.3,47.3v0v600.1
	c0,26.1,21.2,47.3,47.3,47.3h0h233.2c26.1,0,47.3-21.2,47.3-47.3v0v0l0,0V63.8C781.8,37.7,760.6,16.5,734.4,16.5L734.4,16.5
	L734.4,16.5L734.4,16.5z"/>
<circle id="e6b07811-3d0f-4972-ba4c-46b0c6566e33" class="st0" cx="618.2" cy="651.7" r="26"/>
<path class="st0" d="M512.8,411.3c-2.5,0-4.5,2.3-4.5,5.1s2,5.1,4.5,5.1h210.1c2.5,0,4.5-2.3,4.5-5.1s-2-5.1-4.5-5.1H512.8z"/>
<path class="st0" d="M512.8,531.3c-2.5,0-4.5,2.3-4.5,5.1s2,5.1,4.5,5.1h210.1c2.5,0,4.5-2.3,4.5-5.1s-2-5.1-4.5-5.1H512.8z"/>
<path class="st0" d="M512.8,441.8c-2.5,0-4.5,2.3-4.5,5.1s2,5.1,4.5,5.1h90.4c2.5,0,4.5-2.3,4.5-5.1s-2-5.1-4.5-5.1H512.8z"/>
<path class="st0" d="M512.8,470.9c-2.5,0-4.5,2.3-4.5,5.1s2,5.1,4.5,5.1h210.1c2.5,0,4.5-2.3,4.5-5.1s-2-5.1-4.5-5.1H512.8z"/>
<path class="st0" d="M512.8,501.5c-2.5,0-4.5,2.3-4.5,5.1s2,5.1,4.5,5.1h90.4c2.5,0,4.5-2.3,4.5-5.1s-2-5.1-4.5-5.1H512.8z"/>
<path class="st1" d="M552.4,179.6h130.8c3,0,5.4,2.4,5.5,5.5v136.2c0,3-2.4,5.4-5.5,5.5H552.4c-3,0-5.4-2.4-5.5-5.5V185.1
	C547,182.1,549.4,179.6,552.4,179.6z"/>
<path class="st2" d="M655.4,298.7c2,0,3.7-1.7,3.7-3.7c0-2-1.7-3.7-3.7-3.7c0,0,0,0,0,0h-75.1c-2,0-3.7,1.7-3.7,3.7
	c0,2,1.7,3.7,3.7,3.7c0,0,0,0,0,0H655.4z"/>
<path class="st2" d="M655.4,276.9c2,0,3.7-1.7,3.7-3.7c0-2-1.7-3.7-3.7-3.7h-75.1c-2,0-3.7,1.7-3.7,3.7c0,2,1.7,3.7,3.7,3.7
	c0,0,0,0,0,0H655.4z"/>
<path class="st2" d="M617.8,207.7c12.9,0,23.3,10.4,23.3,23.3s-10.4,23.3-23.3,23.3c-12.9,0-23.3-10.4-23.3-23.3c0,0,0,0,0,0
	C594.6,218.2,605,207.7,617.8,207.7z"/>
</svg>
